<svg xmlns="http://www.w3.org/2000/svg" height="170" width="171" fill="#41484c">
    
    <polygon points="33.5,14 127.5,80 103.5,126" />
    <polygon points="103,127 63,127 63,91 76,83.8" />
    <polygon points="62,91 62,151 42,127" />
    <polygon points="41,127 31,127 21,106 61,91" />
    <polygon points="20.5,105.5 40.5,90.5 42.5,96.25" />
    <polygon points="20,105 40,90 0,94 15,110 22.38,110" />
    <polygon points="0,93 0,24 12,91.8" />
    <polygon points="104,127 114,127 134,91 125,86.75" />
    <polygon points="115,127 135,91 135,151" />
    <polygon points="136,91 136,127 166,101" />
    <polygon points="166,100 136,90 136,40 151,30" />
    <polygon points="152,30 171,40 162,50 155.75,47.5" />
    <polygon points="152,29 171,39 137,4"/>

</svg>