<svg xmlns="http://www.w3.org/2000/svg" height="700" width="500">
    <rect x="50" y="50" width="400" height="600" stroke="gray" fill="white" stroke-width="1"/>
    
    <line x1="200" x2="300" y1="80" y2="80" stroke="gray" stroke-width="5" stroke-dasharray="25 5 5 5 40 5 20 5 54 3"/>
    
    <line x1="70" x2="430" y1="100" y2="100" stroke="gray" stroke-width="5" stroke-dasharray="25 5 5 5 40 5 20 5 54 3"/>
    <line x1="70" x2="400" y1="120" y2="120" stroke="gray" stroke-width="5" stroke-dasharray="25 5 5 5 40 5 20 5 54 3"/>
    <line x1="70" x2="410" y1="140" y2="140" stroke="gray" stroke-width="5" stroke-dasharray="25 5 5 5 40 5 20 5 54 3"/>
    <line x1="70" x2="270" y1="160" y2="160" stroke="gray" stroke-width="5" stroke-dasharray="25 5 5 5 40 5 20 5 54 3"/>

    <line x1="70" x2="415" y1="190" y2="190" stroke="gray" stroke-width="5" stroke-dasharray="25 5 5 5 40 5 20 5 54 3"/>
    <line x1="70" x2="430" y1="210" y2="210" stroke="gray" stroke-width="5" stroke-dasharray="25 5 5 5 40 5 20 5 54 3"/>
    <line x1="70" x2="390" y1="230" y2="230" stroke="gray" stroke-width="5" stroke-dasharray="25 5 5 5 40 5 20 5 54 3"/>
    
    <line x1="70" x2="430" y1="260" y2="260" stroke="gray" stroke-width="5" stroke-dasharray="25 5 5 5 40 5 20 5 54 3"/>
    <line x1="70" x2="400" y1="280" y2="280" stroke="gray" stroke-width="5" stroke-dasharray="25 5 5 5 40 5 20 5 54 3"/>
    <line x1="70" x2="410" y1="300" y2="300" stroke="gray" stroke-width="5" stroke-dasharray="25 5 5 5 40 5 20 5 54 3"/>
    <line x1="70" x2="270" y1="320" y2="320" stroke="gray" stroke-width="5" stroke-dasharray="25 5 5 5 40 5 20 5 54 3"/>
    <line x1="70" x2="430" y1="340" y2="340" stroke="gray" stroke-width="5" stroke-dasharray="25 5 5 5 40 5 20 5 54 3"/>
    <line x1="70" x2="400" y1="360" y2="360" stroke="gray" stroke-width="5" stroke-dasharray="25 5 5 5 40 5 20 5 54 3"/>
    <line x1="70" x2="410" y1="380" y2="380" stroke="gray" stroke-width="5" stroke-dasharray="25 5 5 5 40 5 20 5 54 3"/>
    <line x1="70" x2="270" y1="400" y2="400" stroke="gray" stroke-width="5" stroke-dasharray="25 5 5 5 40 5 20 5 54 3"/>

    <line x1="70" x2="400" y1="430" y2="430" stroke="gray" stroke-width="5" stroke-dasharray="25 5 5 5 40 5 20 5 54 3"/>
    <line x1="70" x2="230" y1="450" y2="450" stroke="gray" stroke-width="5" stroke-dasharray="25 5 5 5 40 5 20 5 54 3"/>
    
    <line x1="70" x2="400" y1="480" y2="480" stroke="gray" stroke-width="5" stroke-dasharray="25 5 5 5 40 5 20 5 54 3"/>
    <line x1="70" x2="410" y1="500" y2="500" stroke="gray" stroke-width="5" stroke-dasharray="25 5 5 5 40 5 20 5 54 3"/>
    <line x1="70" x2="430" y1="520" y2="520" stroke="gray" stroke-width="5" stroke-dasharray="25 5 5 5 40 5 20 5 54 3"/>
    <line x1="70" x2="410" y1="540" y2="540" stroke="gray" stroke-width="5" stroke-dasharray="25 5 5 5 40 5 20 5 54 3"/>
    <line x1="70" x2="395" y1="560" y2="560" stroke="gray" stroke-width="5" stroke-dasharray="25 5 5 5 40 5 20 5 54 3"/>
    
    <line x1="70" x2="410" y1="590" y2="590" stroke="gray" stroke-width="5" stroke-dasharray="25 5 5 5 40 5 20 5 54 3"/>
    <line x1="70" x2="420" y1="610" y2="610" stroke="gray" stroke-width="5" stroke-dasharray="25 5 5 5 40 5 20 5 54 3"/>
    <line x1="70" x2="370" y1="630" y2="630" stroke="gray" stroke-width="5" stroke-dasharray="25 5 5 5 40 5 20 5 54 3"/>
    
</svg>