<svg xmlns="http://www.w3.org/2000/svg" height="164" width="164">
    
    <polygon points="134,14 40,80 64,126" />
    <polygon points="64,126 104,126 104,90 91,82.8" />
    <polygon points="104,90 104,150 124,126" />
    <polygon points="124,126 134,126 144,105 104,90" />
    <polygon points="144,105 124,90 122,96.75" />
    <polygon points="144,105 124,90 164,94 149,110 141.62,110" />
    <polygon points="164,94 164,25 152,92.8" />
    <polygon points="64,126 54,126 34,90 43,85.75" />
    <polygon points="54,126 34,90 34,150" />
    <polygon points="34,90 34,126 4,100" />
    <polygon points="4,100 34,90 34,40 19,30" />
    <polygon points="19,30 0,40 9,50 15.25,47.5" />
    <polygon points="19,30 0,40 34,5"/>

</svg>