<svg xmlns="http://www.w3.org/2000/svg" height="170" width="170">
    
    <polygon points="30,14 124,80 100,126" />
    <polygon points="100,126 60,126 60,90 73,82.8" />
    <polygon points="60,90 60,150 40,126" />
    <polygon points="40,126 30,126 20,105 60,90" />
    <polygon points="20,105 40,90 42,96.75" />
    <polygon points="20,105 40,90 0,94 15,110 22.38,110" />
    <polygon points="0,94 0,25 12,92.8" />
    <polygon points="100,126 110,126 130,90 121,85.75" />
    <polygon points="110,126 130,90 130,150" />
    <polygon points="130,90 130,126 160,100" />
    <polygon points="160,100 130,90 130,40 145,30" />
    <polygon points="145,30 164,40 155,50 148.75,47.5" />
    <polygon points="145,30 164,40 130,5"/>

</svg>