<svg xmlns="http://www.w3.org/2000/svg" height="147" width="171" viewBox="0 0 171 147" fill="#41484c">
    
    <polygon points="33.5,10 127.5,76 103.5,122" />
    <polygon points="103,123 63,123 63,87 76,79.8" />
    <polygon points="62,87 62,147 42,123" />
    <polygon points="41,123 31,123 21,102 61,87" />
    <polygon points="20.5,101.5 40.5,86.5 42.5,92.25" />
    <polygon points="20,101 40,86 0,90 15,106 22.38,106" />
    <polygon points="0,89 0,20 12,87.8" />
    <polygon points="104,123 114,123 134,87 125,82.75" />
    <polygon points="115,123 135,87 135,147" />
    <polygon points="136,87 136,123 166,97" />
    <polygon points="166,96 136,86 136,36 151,26" />
    <polygon points="152,26 171,36 162,46 155.75,43.5" />
    <polygon points="152,25 171,35 137,0"/>

</svg>